<svg width="52" height="42" viewBox="0 0 52 42" fill="none" xmlns="http://www.w3.org/2000/svg">
    <path
        d="M1.76758 38.462H5.13672V39.2286H0.825195V32.1192H1.76758V38.462ZM5.8252 36.5381C5.8252 36.0206 5.92611 35.5551 6.12793 35.1417C6.33301 34.7283 6.61621 34.4092 6.97754 34.1846C7.34212 33.96 7.75716 33.8477 8.22266 33.8477C8.94206 33.8477 9.52311 34.0967 9.96582 34.5948C10.4118 35.0928 10.6348 35.7553 10.6348 36.5821V36.6456C10.6348 37.1599 10.5355 37.6221 10.3369 38.0323C10.1416 38.4392 9.86003 38.7566 9.49219 38.9844C9.1276 39.2123 8.70768 39.3262 8.23242 39.3262C7.51628 39.3262 6.93522 39.0772 6.48926 38.5792C6.04655 38.0811 5.8252 37.4219 5.8252 36.6016V36.5381ZM6.7334 36.6456C6.7334 37.2315 6.86849 37.7019 7.13867 38.0567C7.41211 38.4115 7.77669 38.5889 8.23242 38.5889C8.69141 38.5889 9.05599 38.4099 9.32617 38.0518C9.59635 37.6905 9.73145 37.1859 9.73145 36.5381C9.73145 35.9587 9.5931 35.49 9.31641 35.1319C9.04297 34.7706 8.67839 34.5899 8.22266 34.5899C7.77669 34.5899 7.41699 34.7673 7.14355 35.1221C6.87012 35.4769 6.7334 35.9848 6.7334 36.6456ZM13.4326 38.003L14.7412 33.9454H15.6641L13.7695 39.2286H13.0811L11.167 33.9454H12.0898L13.4326 38.003ZM18.6572 39.3262C17.9411 39.3262 17.3584 39.0919 16.9092 38.6231C16.46 38.1511 16.2354 37.5212 16.2354 36.7335V36.5674C16.2354 36.0434 16.3346 35.5762 16.5332 35.1661C16.735 34.7527 17.015 34.4304 17.373 34.1993C17.7344 33.9649 18.125 33.8477 18.5449 33.8477C19.2318 33.8477 19.7656 34.074 20.1465 34.5264C20.5273 34.9789 20.7178 35.6267 20.7178 36.4698V36.8458H17.1387C17.1517 37.3666 17.3031 37.7881 17.5928 38.1104C17.8857 38.4294 18.2568 38.5889 18.7061 38.5889C19.0251 38.5889 19.2952 38.5238 19.5166 38.3936C19.738 38.2634 19.9316 38.0909 20.0977 37.876L20.6494 38.3057C20.2067 38.9861 19.5426 39.3262 18.6572 39.3262ZM18.5449 34.5899C18.1803 34.5899 17.8743 34.7234 17.627 34.9903C17.3796 35.254 17.2266 35.6251 17.168 36.1036H19.8145V36.0352C19.7884 35.5762 19.6647 35.2214 19.4434 34.9708C19.222 34.7169 18.9225 34.5899 18.5449 34.5899ZM26.4844 36.0596C25.6803 35.8285 25.0944 35.5453 24.7266 35.21C24.362 34.8715 24.1797 34.4548 24.1797 33.96C24.1797 33.4001 24.4027 32.9379 24.8486 32.5733C25.2979 32.2055 25.8805 32.0215 26.5967 32.0215C27.085 32.0215 27.5195 32.1159 27.9004 32.3047C28.2845 32.4936 28.5807 32.754 28.7891 33.086C29.0007 33.418 29.1064 33.781 29.1064 34.1749H28.1641C28.1641 33.7452 28.0273 33.4083 27.7539 33.1641C27.4805 32.9167 27.0947 32.793 26.5967 32.793C26.1344 32.793 25.7731 32.8956 25.5127 33.1006C25.2555 33.3025 25.127 33.584 25.127 33.9454C25.127 34.2351 25.249 34.4809 25.4932 34.6827C25.7406 34.8812 26.1589 35.0635 26.748 35.2296C27.3405 35.3956 27.8027 35.5795 28.1348 35.7813C28.4701 35.9799 28.7174 36.2126 28.877 36.4796C29.0397 36.7465 29.1211 37.0606 29.1211 37.4219C29.1211 37.9981 28.8965 38.4603 28.4473 38.8087C27.998 39.1537 27.3975 39.3262 26.6455 39.3262C26.1572 39.3262 25.7015 39.2335 25.2783 39.0479C24.8551 38.8591 24.528 38.6019 24.2969 38.2764C24.069 37.9509 23.9551 37.5814 23.9551 37.168H24.8975C24.8975 37.5977 25.0553 37.9379 25.3711 38.1885C25.6901 38.4359 26.1149 38.5596 26.6455 38.5596C27.1403 38.5596 27.5195 38.4587 27.7832 38.2569C28.0469 38.0551 28.1787 37.78 28.1787 37.4317C28.1787 37.0834 28.0566 36.8148 27.8125 36.626C27.5684 36.434 27.1257 36.2452 26.4844 36.0596ZM31.4111 32.6661V33.9454H32.3975V34.6436H31.4111V37.92C31.4111 38.1316 31.4551 38.2911 31.543 38.3985C31.6309 38.5027 31.7806 38.5547 31.9922 38.5547C32.0964 38.5547 32.2396 38.5352 32.4219 38.4962V39.2286C32.1842 39.2937 31.9531 39.3262 31.7285 39.3262C31.3249 39.3262 31.0205 39.2042 30.8154 38.96C30.6104 38.7159 30.5078 38.3692 30.5078 37.92V34.6436H29.5459V33.9454H30.5078V32.6661H31.4111ZM33.1201 36.5381C33.1201 36.0206 33.221 35.5551 33.4229 35.1417C33.6279 34.7283 33.9111 34.4092 34.2725 34.1846C34.637 33.96 35.0521 33.8477 35.5176 33.8477C36.237 33.8477 36.818 34.0967 37.2607 34.5948C37.7067 35.0928 37.9297 35.7553 37.9297 36.5821V36.6456C37.9297 37.1599 37.8304 37.6221 37.6318 38.0323C37.4365 38.4392 37.1549 38.7566 36.7871 38.9844C36.4225 39.2123 36.0026 39.3262 35.5273 39.3262C34.8112 39.3262 34.2301 39.0772 33.7842 38.5792C33.3415 38.0811 33.1201 37.4219 33.1201 36.6016V36.5381ZM34.0283 36.6456C34.0283 37.2315 34.1634 37.7019 34.4336 38.0567C34.707 38.4115 35.0716 38.5889 35.5273 38.5889C35.9863 38.5889 36.3509 38.4099 36.6211 38.0518C36.8913 37.6905 37.0264 37.1859 37.0264 36.5381C37.0264 35.9587 36.888 35.49 36.6113 35.1319C36.3379 34.7706 35.9733 34.5899 35.5176 34.5899C35.0716 34.5899 34.7119 34.7673 34.4385 35.1221C34.165 35.4769 34.0283 35.9848 34.0283 36.6456ZM41.6162 34.7559C41.4795 34.7331 41.3314 34.7217 41.1719 34.7217C40.5794 34.7217 40.1774 34.974 39.9658 35.4786V39.2286H39.0625V33.9454H39.9414L39.9561 34.5557C40.2523 34.0837 40.6722 33.8477 41.2158 33.8477C41.3916 33.8477 41.5251 33.8705 41.6162 33.9161V34.7559ZM44.2676 37.9053L45.498 33.9454H46.4648L44.3408 40.044C44.012 40.9229 43.4896 41.3624 42.7734 41.3624L42.6025 41.3477L42.2656 41.2842V40.5518L42.5098 40.5714C42.8158 40.5714 43.0534 40.5095 43.2227 40.3858C43.3952 40.2621 43.5368 40.0359 43.6475 39.7071L43.8477 39.17L41.9629 33.9454H42.9492L44.2676 37.9053Z"
        fill="black" />
    <path
        d="M23.8333 26.5942L23.2786 26.235C20.6423 24.5249 17.3065 22.5921 14.8359 19.7512C12.2322 16.7583 10.983 13.6846 11.0151 10.3535C11.0539 6.6339 14.1247 3.60867 17.8605 3.60867C20.8253 3.60867 22.7967 5.2847 23.8333 6.49443C24.8698 5.2847 26.8412 3.60867 29.806 3.60867C33.5418 3.60867 36.6126 6.6339 36.6515 10.3517C36.686 13.6846 35.4368 16.7565 32.8306 19.7494C30.3601 22.5921 27.0243 24.5249 24.3879 26.235L23.8333 26.5942Z"
        fill="black" />
</svg>