<svg width="38" height="42" viewBox="0 0 38 42" fill="none" xmlns="http://www.w3.org/2000/svg">
    <path
        d="M1.7627 36.4454V39.2286H0.825195V32.1192H3.44727C4.22526 32.1192 4.83398 32.3178 5.27344 32.7149C5.71615 33.112 5.9375 33.6378 5.9375 34.2921C5.9375 34.9822 5.72103 35.5144 5.28809 35.8887C4.8584 36.2598 4.24154 36.4454 3.4375 36.4454H1.7627ZM1.7627 35.6788H3.44727C3.94857 35.6788 4.33268 35.5616 4.59961 35.3272C4.86654 35.0896 5 34.7478 5 34.3018C5 33.8786 4.86654 33.5401 4.59961 33.2862C4.33268 33.0323 3.96647 32.9005 3.50098 32.8907H1.7627V35.6788ZM9.11621 39.3262C8.40007 39.3262 7.81738 39.0919 7.36816 38.6231C6.91895 38.1511 6.69434 37.5212 6.69434 36.7335V36.5674C6.69434 36.0434 6.79362 35.5762 6.99219 35.1661C7.19401 34.7527 7.47396 34.4304 7.83203 34.1993C8.19336 33.9649 8.58398 33.8477 9.00391 33.8477C9.69076 33.8477 10.2246 34.074 10.6055 34.5264C10.9863 34.9789 11.1768 35.6267 11.1768 36.4698V36.8458H7.59766C7.61068 37.3666 7.76204 37.7881 8.05176 38.1104C8.34473 38.4294 8.71582 38.5889 9.16504 38.5889C9.48405 38.5889 9.75423 38.5238 9.97559 38.3936C10.1969 38.2634 10.3906 38.0909 10.5566 37.876L11.1084 38.3057C10.6657 38.9861 10.0016 39.3262 9.11621 39.3262ZM9.00391 34.5899C8.63932 34.5899 8.33333 34.7234 8.08594 34.9903C7.83854 35.254 7.68555 35.6251 7.62695 36.1036H10.2734V36.0352C10.2474 35.5762 10.1237 35.2214 9.90234 34.9708C9.68099 34.7169 9.38151 34.5899 9.00391 34.5899ZM13.0811 33.9454L13.1104 34.6094C13.514 34.1016 14.0413 33.8477 14.6924 33.8477C15.8089 33.8477 16.3721 34.4776 16.3818 35.7374V39.2286H15.4785V35.7325C15.4753 35.3516 15.3874 35.07 15.2148 34.8878C15.0456 34.7055 14.7803 34.6143 14.4189 34.6143C14.126 34.6143 13.8688 34.6924 13.6475 34.8487C13.4261 35.0049 13.2536 35.21 13.1299 35.4639V39.2286H12.2266V33.9454H13.0811ZM21.0059 38.7061C20.6543 39.1195 20.1383 39.3262 19.458 39.3262C18.8949 39.3262 18.4652 39.1635 18.1689 38.838C17.876 38.5092 17.7279 38.0241 17.7246 37.3829V33.9454H18.6279V37.3585C18.6279 38.1592 18.9535 38.5596 19.6045 38.5596C20.2946 38.5596 20.7536 38.3025 20.9814 37.7881V33.9454H21.8848V39.2286H21.0254L21.0059 38.7061ZM24.4873 32.6661V33.9454H25.4736V34.6436H24.4873V37.92C24.4873 38.1316 24.5312 38.2911 24.6191 38.3985C24.707 38.5027 24.8568 38.5547 25.0684 38.5547C25.1725 38.5547 25.3158 38.5352 25.498 38.4962V39.2286C25.2604 39.2937 25.0293 39.3262 24.8047 39.3262C24.401 39.3262 24.0967 39.2042 23.8916 38.96C23.6865 38.7159 23.584 38.3692 23.584 37.92V34.6436H22.6221V33.9454H23.584V32.6661H24.4873ZM29.7949 38.7061C29.4434 39.1195 28.9274 39.3262 28.2471 39.3262C27.6839 39.3262 27.2542 39.1635 26.958 38.838C26.665 38.5092 26.5169 38.0241 26.5137 37.3829V33.9454H27.417V37.3585C27.417 38.1592 27.7425 38.5596 28.3936 38.5596C29.0837 38.5596 29.5426 38.3025 29.7705 37.7881V33.9454H30.6738V39.2286H29.8145L29.7949 38.7061ZM36.5137 36.6456C36.5137 37.4496 36.3298 38.0974 35.9619 38.5889C35.5941 39.0805 35.096 39.3262 34.4678 39.3262C33.8265 39.3262 33.3219 39.1228 32.9541 38.7159V41.2598H32.0508V33.9454H32.876L32.9199 34.5313C33.2878 34.0756 33.7988 33.8477 34.4531 33.8477C35.0879 33.8477 35.5892 34.087 35.957 34.5655C36.3281 35.044 36.5137 35.7097 36.5137 36.5626V36.6456ZM35.6104 36.543C35.6104 35.9473 35.4834 35.4769 35.2295 35.1319C34.9756 34.7868 34.6273 34.6143 34.1846 34.6143C33.6377 34.6143 33.2275 34.8568 32.9541 35.3419V37.8663C33.2243 38.348 33.6377 38.5889 34.1943 38.5889C34.6273 38.5889 34.9707 38.418 35.2246 38.0762C35.4818 37.7312 35.6104 37.2201 35.6104 36.543Z"
        fill="black" />
    <path
        d="M23.9252 4.63638H11.6589C10.3096 4.63638 9.21789 5.74035 9.21789 7.08964L9.20563 26.7157L17.792 23.0358L26.3785 26.7157V7.08964C26.3785 5.74035 25.2745 4.63638 23.9252 4.63638Z"
        fill="black" />
</svg>