<svg width="32" height="42" viewBox="0 0 32 42" fill="none" xmlns="http://www.w3.org/2000/svg">
    <path
        d="M7.7627 36.4454V39.2286H6.8252V32.1192H9.44727C10.2253 32.1192 10.834 32.3178 11.2734 32.7149C11.7161 33.112 11.9375 33.6378 11.9375 34.2921C11.9375 34.9822 11.721 35.5144 11.2881 35.8887C10.8584 36.2598 10.2415 36.4454 9.4375 36.4454H7.7627ZM7.7627 35.6788H9.44727C9.94857 35.6788 10.3327 35.5616 10.5996 35.3272C10.8665 35.0896 11 34.7478 11 34.3018C11 33.8786 10.8665 33.5401 10.5996 33.2862C10.3327 33.0323 9.96647 32.9005 9.50098 32.8907H7.7627V35.6788ZM15.1162 39.3262C14.4001 39.3262 13.8174 39.0919 13.3682 38.6231C12.9189 38.1511 12.6943 37.5212 12.6943 36.7335V36.5674C12.6943 36.0434 12.7936 35.5762 12.9922 35.1661C13.194 34.7527 13.474 34.4304 13.832 34.1993C14.1934 33.9649 14.584 33.8477 15.0039 33.8477C15.6908 33.8477 16.2246 34.074 16.6055 34.5264C16.9863 34.9789 17.1768 35.6267 17.1768 36.4698V36.8458H13.5977C13.6107 37.3666 13.762 37.7881 14.0518 38.1104C14.3447 38.4294 14.7158 38.5889 15.165 38.5889C15.484 38.5889 15.7542 38.5238 15.9756 38.3936C16.1969 38.2634 16.3906 38.0909 16.5566 37.876L17.1084 38.3057C16.6657 38.9861 16.0016 39.3262 15.1162 39.3262ZM15.0039 34.5899C14.6393 34.5899 14.3333 34.7234 14.0859 34.9903C13.8385 35.254 13.6855 35.6251 13.627 36.1036H16.2734V36.0352C16.2474 35.5762 16.1237 35.2214 15.9023 34.9708C15.681 34.7169 15.3815 34.5899 15.0039 34.5899ZM19.4521 32.6661V33.9454H20.4385V34.6436H19.4521V37.92C19.4521 38.1316 19.4961 38.2911 19.584 38.3985C19.6719 38.5027 19.8216 38.5547 20.0332 38.5547C20.1374 38.5547 20.2806 38.5352 20.4629 38.4962V39.2286C20.2253 39.2937 19.9941 39.3262 19.7695 39.3262C19.3659 39.3262 19.0615 39.2042 18.8564 38.96C18.6514 38.7159 18.5488 38.3692 18.5488 37.92V34.6436H17.5869V33.9454H18.5488V32.6661H19.4521ZM24.7598 39.2286C24.7077 39.1244 24.6654 38.9389 24.6328 38.6719C24.2129 39.1081 23.7116 39.3262 23.1289 39.3262C22.6081 39.3262 22.18 39.1797 21.8447 38.8868C21.5127 38.5906 21.3467 38.2162 21.3467 37.7637C21.3467 37.2136 21.555 36.7872 21.9717 36.4844C22.3916 36.1784 22.9808 36.0255 23.7393 36.0255H24.6182V35.6104C24.6182 35.2947 24.5238 35.044 24.335 34.8585C24.1462 34.6697 23.8678 34.5753 23.5 34.5753C23.1777 34.5753 22.9076 34.6566 22.6895 34.8194C22.4714 34.9822 22.3623 35.1791 22.3623 35.4102H21.4541C21.4541 35.1465 21.5469 34.8926 21.7324 34.6485C21.9212 34.4011 22.1751 34.2058 22.4941 34.0626C22.8164 33.9193 23.1696 33.8477 23.5537 33.8477C24.1624 33.8477 24.6393 34.0007 24.9844 34.3067C25.3294 34.6094 25.5085 35.0277 25.5215 35.5616V37.9932C25.5215 38.4783 25.5833 38.864 25.707 39.1505V39.2286H24.7598ZM23.2607 38.5401C23.5439 38.5401 23.8125 38.4669 24.0664 38.3204C24.3203 38.1739 24.5042 37.9835 24.6182 37.7491V36.6651H23.9102C22.8034 36.6651 22.25 36.989 22.25 37.6368C22.25 37.92 22.3444 38.1413 22.5332 38.3008C22.722 38.4603 22.9645 38.5401 23.2607 38.5401Z"
        fill="black" />
    <path
        d="M25.7256 3.75232L25.5294 3.78912L18.9791 6.32824L11.6194 3.75232L4.70117 6.08292C4.44358 6.16878 4.25958 6.38957 4.25958 6.6717V25.2183C4.25958 25.5618 4.52944 25.8317 4.8729 25.8317L5.06916 25.7949L11.6194 23.2557L18.9791 25.8317L25.8973 23.5011C26.1549 23.4152 26.3389 23.1944 26.3389 22.9123V4.36563C26.3389 4.02218 26.0691 3.75232 25.7256 3.75232ZM18.9791 23.3784L11.6194 20.7902V6.20558L18.9791 8.79377V23.3784Z"
        fill="black" />
</svg>