<svg width="47" height="42" viewBox="0 0 47 42" fill="none" xmlns="http://www.w3.org/2000/svg">
    <path
        d="M2.03613 32.1192L4.36035 37.92L6.68457 32.1192H7.90039V39.2286H6.96289V36.46L7.05078 33.4717L4.7168 39.2286H3.99902L1.66992 33.4864L1.7627 36.46V39.2286H0.825195V32.1192H2.03613ZM11.6064 39.3262C10.8903 39.3262 10.3076 39.0919 9.8584 38.6231C9.40918 38.1511 9.18457 37.5212 9.18457 36.7335V36.5674C9.18457 36.0434 9.28385 35.5762 9.48242 35.1661C9.68424 34.7527 9.96419 34.4304 10.3223 34.1993C10.6836 33.9649 11.0742 33.8477 11.4941 33.8477C12.181 33.8477 12.7148 34.074 13.0957 34.5264C13.4766 34.9789 13.667 35.6267 13.667 36.4698V36.8458H10.0879C10.1009 37.3666 10.2523 37.7881 10.542 38.1104C10.835 38.4294 11.2061 38.5889 11.6553 38.5889C11.9743 38.5889 12.2445 38.5238 12.4658 38.3936C12.6872 38.2634 12.8809 38.0909 13.0469 37.876L13.5986 38.3057C13.1559 38.9861 12.4919 39.3262 11.6064 39.3262ZM11.4941 34.5899C11.1296 34.5899 10.8236 34.7234 10.5762 34.9903C10.3288 35.254 10.1758 35.6251 10.1172 36.1036H12.7637V36.0352C12.7376 35.5762 12.6139 35.2214 12.3926 34.9708C12.1712 34.7169 11.8717 34.5899 11.4941 34.5899ZM15.5664 33.9454L15.5908 34.5313C15.9782 34.0756 16.5007 33.8477 17.1582 33.8477C17.8971 33.8477 18.4001 34.1309 18.667 34.6973C18.8428 34.4434 19.0706 34.2383 19.3506 34.0821C19.6338 33.9258 19.9674 33.8477 20.3516 33.8477C21.5104 33.8477 22.0996 34.4613 22.1191 35.6885V39.2286H21.2158V35.7422C21.2158 35.3646 21.1296 35.0831 20.957 34.8975C20.7845 34.7087 20.4948 34.6143 20.0879 34.6143C19.7526 34.6143 19.4743 34.7152 19.2529 34.9171C19.0316 35.1156 18.903 35.3842 18.8672 35.7227V39.2286H17.959V35.7667C17.959 34.9984 17.583 34.6143 16.8311 34.6143C16.2386 34.6143 15.8333 34.8666 15.6152 35.3712V39.2286H14.7119V33.9454H15.5664ZM27.9492 36.6456C27.9492 37.4496 27.7653 38.0974 27.3975 38.5889C27.0296 39.0805 26.5316 39.3262 25.9033 39.3262C25.262 39.3262 24.7575 39.1228 24.3896 38.7159V41.2598H23.4863V33.9454H24.3115L24.3555 34.5313C24.7233 34.0756 25.2344 33.8477 25.8887 33.8477C26.5234 33.8477 27.0247 34.087 27.3926 34.5655C27.7637 35.044 27.9492 35.7097 27.9492 36.5626V36.6456ZM27.0459 36.543C27.0459 35.9473 26.9189 35.4769 26.665 35.1319C26.4111 34.7868 26.0628 34.6143 25.6201 34.6143C25.0732 34.6143 24.6631 34.8568 24.3896 35.3419V37.8663C24.6598 38.348 25.0732 38.5889 25.6299 38.5889C26.0628 38.5889 26.4062 38.418 26.6602 38.0762C26.9173 37.7312 27.0459 37.2201 27.0459 36.543ZM31.2939 39.3262C30.5778 39.3262 29.9951 39.0919 29.5459 38.6231C29.0967 38.1511 28.8721 37.5212 28.8721 36.7335V36.5674C28.8721 36.0434 28.9714 35.5762 29.1699 35.1661C29.3717 34.7527 29.6517 34.4304 30.0098 34.1993C30.3711 33.9649 30.7617 33.8477 31.1816 33.8477C31.8685 33.8477 32.4023 34.074 32.7832 34.5264C33.1641 34.9789 33.3545 35.6267 33.3545 36.4698V36.8458H29.7754C29.7884 37.3666 29.9398 37.7881 30.2295 38.1104C30.5225 38.4294 30.8936 38.5889 31.3428 38.5889C31.6618 38.5889 31.932 38.5238 32.1533 38.3936C32.3747 38.2634 32.5684 38.0909 32.7344 37.876L33.2861 38.3057C32.8434 38.9861 32.1794 39.3262 31.2939 39.3262ZM31.1816 34.5899C30.8171 34.5899 30.5111 34.7234 30.2637 34.9903C30.0163 35.254 29.8633 35.6251 29.8047 36.1036H32.4512V36.0352C32.4251 35.5762 32.3014 35.2214 32.0801 34.9708C31.8587 34.7169 31.5592 34.5899 31.1816 34.5899ZM35.3857 39.2286H34.4824V31.7286H35.3857V39.2286ZM40.0977 39.2286C40.0456 39.1244 40.0033 38.9389 39.9707 38.6719C39.5508 39.1081 39.0495 39.3262 38.4668 39.3262C37.946 39.3262 37.5179 39.1797 37.1826 38.8868C36.8506 38.5906 36.6846 38.2162 36.6846 37.7637C36.6846 37.2136 36.8929 36.7872 37.3096 36.4844C37.7295 36.1784 38.3187 36.0255 39.0771 36.0255H39.9561V35.6104C39.9561 35.2947 39.8617 35.044 39.6729 34.8585C39.484 34.6697 39.2057 34.5753 38.8379 34.5753C38.5156 34.5753 38.2454 34.6566 38.0273 34.8194C37.8092 34.9822 37.7002 35.1791 37.7002 35.4102H36.792C36.792 35.1465 36.8848 34.8926 37.0703 34.6485C37.2591 34.4011 37.513 34.2058 37.832 34.0626C38.1543 33.9193 38.5075 33.8477 38.8916 33.8477C39.5003 33.8477 39.9772 34.0007 40.3223 34.3067C40.6673 34.6094 40.8464 35.0277 40.8594 35.5616V37.9932C40.8594 38.4783 40.9212 38.864 41.0449 39.1505V39.2286H40.0977ZM38.5986 38.5401C38.8818 38.5401 39.1504 38.4669 39.4043 38.3204C39.6582 38.1739 39.8421 37.9835 39.9561 37.7491V36.6651H39.248C38.1413 36.6651 37.5879 36.989 37.5879 37.6368C37.5879 37.92 37.6823 38.1413 37.8711 38.3008C38.0599 38.4603 38.3024 38.5401 38.5986 38.5401ZM43.2568 39.2286H42.3535V33.9454H43.2568V39.2286ZM42.2803 32.544C42.2803 32.3975 42.3242 32.2738 42.4121 32.1729C42.5033 32.072 42.6367 32.0215 42.8125 32.0215C42.9883 32.0215 43.1217 32.072 43.2129 32.1729C43.304 32.2738 43.3496 32.3975 43.3496 32.544C43.3496 32.6905 43.304 32.8126 43.2129 32.9102C43.1217 33.0079 42.9883 33.0567 42.8125 33.0567C42.6367 33.0567 42.5033 33.0079 42.4121 32.9102C42.3242 32.8126 42.2803 32.6905 42.2803 32.544Z"
        fill="black" />
    <path
        d="M29.7563 17.8799C28.0203 17.8799 25.3151 18.3737 23.2464 19.3323C21.1777 18.3592 18.4725 17.8799 16.7365 17.8799C13.5973 17.8799 7.33334 19.4485 7.33334 22.6002V26.5942H39.1594V22.6002C39.1594 19.4485 32.8955 17.8799 29.7563 17.8799ZM23.9697 24.4156H9.5033V22.6002C9.5033 21.8159 13.2067 20.0585 16.7365 20.0585C20.2663 20.0585 23.9697 21.8159 23.9697 22.6002V24.4156ZM36.9895 24.4156H26.1397V22.6002C26.1397 21.9321 25.8503 21.3511 25.3874 20.8282C26.6605 20.3925 28.2228 20.0585 29.7563 20.0585C33.2861 20.0585 36.9895 21.8159 36.9895 22.6002V24.4156ZM16.7365 16.4275C19.5285 16.4275 21.7997 14.1473 21.7997 11.3442C21.7997 8.5411 19.5285 6.26086 16.7365 6.26086C13.9445 6.26086 11.6733 8.5411 11.6733 11.3442C11.6733 14.1473 13.9445 16.4275 16.7365 16.4275ZM16.7365 8.43944C18.3278 8.43944 19.6298 9.74658 19.6298 11.3442C19.6298 12.9418 18.3278 14.249 16.7365 14.249C15.1452 14.249 13.8432 12.9418 13.8432 11.3442C13.8432 9.74658 15.1452 8.43944 16.7365 8.43944ZM29.7563 16.4275C32.5483 16.4275 34.8195 14.1473 34.8195 11.3442C34.8195 8.5411 32.5483 6.26086 29.7563 6.26086C26.9643 6.26086 24.693 8.5411 24.693 11.3442C24.693 14.1473 26.9643 16.4275 29.7563 16.4275ZM29.7563 8.43944C31.3476 8.43944 32.6495 9.74658 32.6495 11.3442C32.6495 12.9418 31.3476 14.249 29.7563 14.249C28.165 14.249 26.863 12.9418 26.863 11.3442C26.863 9.74658 28.165 8.43944 29.7563 8.43944Z"
        fill="black" />
</svg>