<!-- <svg xmlns="http://www.w3.org/2000/svg" viewBox="0 0 1440 320"><path fill="#fd79a8" fill-opacity="1" d="M0,192L120,165.3C240,139,480,85,720,80C960,75,1200,117,1320,138.7L1440,160L1440,320L1320,320C1200,320,960,320,720,320C480,320,240,320,120,320L0,320Z"></path></svg> -->
<svg xmlns="http://www.w3.org/2000/svg" viewBox="0 0 1440 320"><path fill="#fd79a8" fill-opacity="1" d="M0,160L34.3,176C68.6,192,137,224,206,202.7C274.3,181,343,107,411,101.3C480,96,549,160,617,181.3C685.7,203,754,181,823,154.7C891.4,128,960,96,1029,90.7C1097.1,85,1166,107,1234,122.7C1302.9,139,1371,149,1406,154.7L1440,160L1440,320L1405.7,320C1371.4,320,1303,320,1234,320C1165.7,320,1097,320,1029,320C960,320,891,320,823,320C754.3,320,686,320,617,320C548.6,320,480,320,411,320C342.9,320,274,320,206,320C137.1,320,69,320,34,320L0,320Z"></path></svg>