<svg width="324" height="35" viewBox="0 0 324 35" fill="none" xmlns="http://www.w3.org/2000/svg">
    <path
        d="M75.016 15.44C74.0827 15.44 73.2147 15.3653 72.412 15.216C72.6733 16.0373 73.224 17.8947 74.064 20.788C74.3253 21.628 74.736 22.4773 75.296 23.336C76.0613 24.4373 76.7707 24.988 77.424 24.988C78.208 24.988 78.8613 24.1947 79.384 22.608C79.4773 22.2347 79.5707 22.048 79.664 22.048C79.776 22.048 79.8507 22.16 79.888 22.384C79.944 22.5893 79.972 22.7293 79.972 22.804C79.972 23.2707 79.7107 23.868 79.188 24.596C78.4973 25.6227 77.7413 26.136 76.92 26.136C76.0987 26.136 75.3427 25.7253 74.652 24.904C73.9613 24.0827 73.28 22.5893 72.608 20.424C71.9547 18.24 71.628 16.8493 71.628 16.252C71.628 16.1587 71.6373 16.084 71.656 16.028C69.416 18.996 67.8107 20.956 66.84 21.908C64.6747 24.0173 62.4627 25.072 60.204 25.072C58.6173 25.072 57.824 24.4747 57.824 23.28C57.824 22.6827 58.0107 22.0293 58.384 21.32C58.7573 20.592 59.2147 19.9573 59.756 19.416C60.2973 18.8747 60.7733 18.604 61.184 18.604C61.2587 18.604 61.296 18.6227 61.296 18.66C61.296 18.7533 61.0627 18.9867 60.596 19.36C60.1293 19.7333 59.6813 20.2653 59.252 20.956C58.8227 21.628 58.608 22.244 58.608 22.804C58.608 23.7933 59.2707 24.288 60.596 24.288C63.0787 24.288 66.4947 21.376 70.844 15.552C71.0867 15.2347 71.292 15.0107 71.46 14.88L71.012 14.712C70.7693 14.8053 70.5733 14.852 70.424 14.852C70.032 14.852 69.836 14.6933 69.836 14.376C69.836 13.9467 70.1253 13.6667 70.704 13.536C70.7787 13.5173 70.844 13.508 70.9 13.508C71.236 13.508 71.628 13.676 72.076 14.012C73.7187 12.1827 74.5587 11.2493 74.596 11.212C75.9587 9.812 76.8733 9.112 77.34 9.112C77.8253 9.112 78.068 9.31733 78.068 9.728C78.068 9.91467 78.0213 10.092 77.928 10.26C77.8533 10.428 77.76 10.512 77.648 10.512C77.536 10.5493 77.48 10.4933 77.48 10.344C77.48 10.2693 77.536 10.1573 77.648 10.008C77.6667 9.74667 77.5827 9.616 77.396 9.616C76.7987 9.616 75.352 11.2027 73.056 14.376C73.616 14.4133 74.0827 14.432 74.456 14.432C78.7867 14.432 81.4933 13.312 82.576 11.072C82.8 10.5867 82.912 10.1387 82.912 9.728C82.912 8.90667 82.5387 8.19733 81.792 7.6C80.5973 6.62933 78.656 6.144 75.968 6.144C73.28 6.144 70.536 6.82533 67.736 8.188C64.3387 9.84933 62.64 11.8 62.64 14.04C62.64 14.768 63.0973 15.132 64.012 15.132C64.9267 15.132 65.8973 14.796 66.924 14.124C67.9507 13.452 68.6413 12.7893 68.996 12.136C69.1267 11.8933 69.248 11.772 69.36 11.772C69.4907 11.772 69.528 11.8467 69.472 11.996C69.1173 13.0413 68.324 13.9373 67.092 14.684C65.8787 15.412 64.6093 15.776 63.284 15.776C61.9587 15.776 61.296 15.356 61.296 14.516C61.296 14.46 61.296 14.3947 61.296 14.32C61.576 11.8747 63.0693 9.80267 65.776 8.104C68.5013 6.38667 71.7773 5.528 75.604 5.528C79.1693 5.528 81.6987 6.144 83.192 7.376C84.088 8.12267 84.536 9 84.536 10.008C84.536 10.4373 84.4333 10.904 84.228 11.408C83.6493 12.7707 82.464 13.788 80.672 14.46C78.88 15.1133 76.9947 15.44 75.016 15.44ZM81.4827 23.364C81.2774 23.364 81.0907 23.336 80.9227 23.28C79.728 22.944 79.1307 22.272 79.1307 21.264C79.1307 19.9573 79.952 18.4453 81.5947 16.728C83.2374 15.0107 84.712 14.152 86.0187 14.152C86.448 14.152 86.7934 14.2733 87.0547 14.516C87.3347 14.74 87.4747 15.02 87.4747 15.356C87.4747 16.4013 86.6814 17.4 85.0947 18.352C83.5267 19.304 82.248 19.78 81.2587 19.78C81.1094 19.78 80.9787 19.7613 80.8667 19.724C80.5867 20.228 80.4467 20.76 80.4467 21.32C80.4467 22.2907 80.904 22.776 81.8187 22.776C82.752 22.776 83.956 22.1507 85.4307 20.9C86.5694 19.9853 87.54 19.0147 88.3427 17.988C88.5107 17.764 88.6507 17.652 88.7627 17.652C88.8934 17.652 88.9587 17.708 88.9587 17.82C88.9587 17.932 88.884 18.0907 88.7347 18.296C87.7267 19.6213 86.5134 20.7973 85.0947 21.824C83.676 22.8507 82.472 23.364 81.4827 23.364ZM86.7747 15.3C86.7747 15.076 86.532 14.964 86.0467 14.964C85.58 14.964 84.908 15.328 84.0307 16.056C82.8547 17.0267 81.94 18.044 81.2867 19.108C81.3987 19.1453 81.52 19.164 81.6507 19.164C82.36 19.164 83.3027 18.7907 84.4787 18.044C85.6734 17.2787 86.42 16.448 86.7187 15.552C86.756 15.4587 86.7747 15.3747 86.7747 15.3ZM92.3981 22.58C91.8568 22.8973 91.1848 23.056 90.3821 23.056C89.5981 23.056 88.9914 22.7947 88.5621 22.272C88.1514 21.7493 87.7968 20.9187 87.4981 19.78C87.1621 20.116 86.9288 20.284 86.7981 20.284C86.7048 20.284 86.6581 20.2187 86.6581 20.088C86.6581 19.9573 86.7048 19.8453 86.7981 19.752C87.4141 18.9867 88.4594 17.8853 89.9341 16.448L93.4621 13.144C94.4701 12.192 95.0674 11.716 95.2541 11.716C95.8514 11.716 96.1501 11.94 96.1501 12.388C96.1501 12.612 96.0568 12.836 95.8701 13.06C95.7021 13.2653 95.5714 13.4333 95.4781 13.564C95.4034 13.676 95.3194 13.788 95.2261 13.9C94.8901 14.4787 94.5448 15.6733 94.1901 17.484C93.8541 19.2947 93.5928 20.5547 93.4061 21.264C94.9554 21.2453 96.5514 20.2373 98.1941 18.24C98.3808 18.0533 98.5208 17.96 98.6141 17.96C98.7074 17.96 98.7541 18.0253 98.7541 18.156C98.7541 18.268 98.6701 18.4267 98.5021 18.632C97.4194 19.9013 96.4114 20.788 95.4781 21.292C94.9181 21.572 94.1901 21.8053 93.2941 21.992L92.3981 22.58ZM88.6181 19.472C88.6181 20.1067 88.8234 20.6293 89.2341 21.04C89.6634 21.432 90.1394 21.628 90.6621 21.628C91.1848 21.628 91.5861 21.5253 91.8661 21.32C92.2394 21.1147 92.6034 20.256 92.9581 18.744C93.3314 17.232 93.5554 15.8973 93.6301 14.74L93.7421 13.788C92.7154 14.5533 91.6141 15.5427 90.4381 16.756C89.2808 17.9693 88.6834 18.772 88.6461 19.164C88.6274 19.276 88.6181 19.3787 88.6181 19.472ZM98.7366 23.364C98.5313 23.364 98.3446 23.336 98.1766 23.28C96.9819 22.944 96.3846 22.272 96.3846 21.264C96.3846 19.9573 97.2059 18.4453 98.8486 16.728C100.491 15.0107 101.966 14.152 103.273 14.152C103.702 14.152 104.047 14.2733 104.309 14.516C104.589 14.74 104.729 15.02 104.729 15.356C104.729 16.4013 103.935 17.4 102.349 18.352C100.781 19.304 99.5019 19.78 98.5126 19.78C98.3633 19.78 98.2326 19.7613 98.1206 19.724C97.8406 20.228 97.7006 20.76 97.7006 21.32C97.7006 22.2907 98.1579 22.776 99.0726 22.776C100.006 22.776 101.21 22.1507 102.685 20.9C103.823 19.9853 104.794 19.0147 105.597 17.988C105.765 17.764 105.905 17.652 106.017 17.652C106.147 17.652 106.213 17.708 106.213 17.82C106.213 17.932 106.138 18.0907 105.989 18.296C104.981 19.6213 103.767 20.7973 102.349 21.824C100.93 22.8507 99.7259 23.364 98.7366 23.364ZM104.029 15.3C104.029 15.076 103.786 14.964 103.301 14.964C102.834 14.964 102.162 15.328 101.285 16.056C100.109 17.0267 99.1939 18.044 98.5406 19.108C98.6526 19.1453 98.7739 19.164 98.9046 19.164C99.6139 19.164 100.557 18.7907 101.733 18.044C102.927 17.2787 103.674 16.448 103.973 15.552C104.01 15.4587 104.029 15.3747 104.029 15.3ZM115.056 16.672C115.056 18.184 114.188 19.6213 112.452 20.984C110.735 22.328 109.241 23 107.972 23C107.132 23 106.516 22.944 106.124 22.832C105.751 22.72 105.331 22.384 104.864 21.824C104.547 22.0853 104.117 22.748 103.576 23.812C103.035 24.8947 102.764 25.8187 102.764 26.584C102.764 26.9387 102.941 27.4053 103.296 27.984C103.333 28.0773 103.305 28.152 103.212 28.208C103.119 28.2827 103.053 28.32 103.016 28.32C102.96 28.32 102.913 28.3107 102.876 28.292C102.092 27.8627 101.7 27.0227 101.7 25.772C101.7 24.54 102.727 22.4027 104.78 19.36C106.852 16.2987 108.28 14.6373 109.064 14.376C109.251 14.3387 109.372 14.32 109.428 14.32C109.745 14.32 109.904 14.6653 109.904 15.356C110.091 15.1693 110.473 14.992 111.052 14.824C111.761 14.6373 112.265 14.544 112.564 14.544C113.236 14.544 113.815 14.74 114.3 15.132C114.804 15.5053 115.056 16.0187 115.056 16.672ZM113.628 16.392C113.628 15.6827 113.208 15.328 112.368 15.328C111.528 15.328 110.763 15.5053 110.072 15.86C109.755 16.0093 108.877 16.8307 107.44 18.324C106.003 19.8173 105.284 20.7787 105.284 21.208C105.284 21.544 105.536 21.796 106.04 21.964C106.563 22.132 107.085 22.216 107.608 22.216C108.635 22.216 109.895 21.6373 111.388 20.48C112.881 19.304 113.628 17.9413 113.628 16.392ZM116.483 23.364C116.277 23.364 116.091 23.336 115.923 23.28C114.728 22.944 114.131 22.272 114.131 21.264C114.131 19.9573 114.952 18.4453 116.595 16.728C118.237 15.0107 119.712 14.152 121.019 14.152C121.448 14.152 121.793 14.2733 122.055 14.516C122.335 14.74 122.475 15.02 122.475 15.356C122.475 16.4013 121.681 17.4 120.095 18.352C118.527 19.304 117.248 19.78 116.259 19.78C116.109 19.78 115.979 19.7613 115.867 19.724C115.587 20.228 115.447 20.76 115.447 21.32C115.447 22.2907 115.904 22.776 116.819 22.776C117.752 22.776 118.956 22.1507 120.431 20.9C121.569 19.9853 122.54 19.0147 123.343 17.988C123.511 17.764 123.651 17.652 123.763 17.652C123.893 17.652 123.959 17.708 123.959 17.82C123.959 17.932 123.884 18.0907 123.735 18.296C122.727 19.6213 121.513 20.7973 120.095 21.824C118.676 22.8507 117.472 23.364 116.483 23.364ZM121.775 15.3C121.775 15.076 121.532 14.964 121.047 14.964C120.58 14.964 119.908 15.328 119.031 16.056C117.855 17.0267 116.94 18.044 116.287 19.108C116.399 19.1453 116.52 19.164 116.651 19.164C117.36 19.164 118.303 18.7907 119.479 18.044C120.673 17.2787 121.42 16.448 121.719 15.552C121.756 15.4587 121.775 15.3747 121.775 15.3ZM127.398 22.58C126.857 22.8973 126.185 23.056 125.382 23.056C124.598 23.056 123.991 22.7947 123.562 22.272C123.151 21.7493 122.797 20.9187 122.498 19.78C122.162 20.116 121.929 20.284 121.798 20.284C121.705 20.284 121.658 20.2187 121.658 20.088C121.658 19.9573 121.705 19.8453 121.798 19.752C122.414 18.9867 123.459 17.8853 124.934 16.448L128.462 13.144C129.47 12.192 130.067 11.716 130.254 11.716C130.851 11.716 131.15 11.94 131.15 12.388C131.15 12.612 131.057 12.836 130.87 13.06C130.702 13.2653 130.571 13.4333 130.478 13.564C130.403 13.676 130.319 13.788 130.226 13.9C129.89 14.4787 129.545 15.6733 129.19 17.484C128.854 19.2947 128.593 20.5547 128.406 21.264C129.955 21.2453 131.551 20.2373 133.194 18.24C133.381 18.0533 133.521 17.96 133.614 17.96C133.707 17.96 133.754 18.0253 133.754 18.156C133.754 18.268 133.67 18.4267 133.502 18.632C132.419 19.9013 131.411 20.788 130.478 21.292C129.918 21.572 129.19 21.8053 128.294 21.992L127.398 22.58ZM123.618 19.472C123.618 20.1067 123.823 20.6293 124.234 21.04C124.663 21.432 125.139 21.628 125.662 21.628C126.185 21.628 126.586 21.5253 126.866 21.32C127.239 21.1147 127.603 20.256 127.958 18.744C128.331 17.232 128.555 15.8973 128.63 14.74L128.742 13.788C127.715 14.5533 126.614 15.5427 125.438 16.756C124.281 17.9693 123.683 18.772 123.646 19.164C123.627 19.276 123.618 19.3787 123.618 19.472ZM138.385 11.576C138.665 11.576 138.926 11.6693 139.169 11.856C139.43 12.024 139.561 12.2293 139.561 12.472C139.561 12.7147 139.439 12.9293 139.197 13.116C138.973 13.284 138.721 13.368 138.441 13.368C138.161 13.368 137.899 13.2653 137.657 13.06C137.433 12.8547 137.321 12.6213 137.321 12.36C137.321 11.8373 137.675 11.576 138.385 11.576ZM133.317 23.308C132.365 23.308 131.889 22.692 131.889 21.46C131.889 20.452 132.439 19.0613 133.541 17.288C134.642 15.496 135.529 14.5907 136.201 14.572C136.387 14.572 136.593 14.6467 136.817 14.796C137.059 14.9453 137.181 15.0947 137.181 15.244C137.087 15.3747 136.975 15.524 136.845 15.692C136.714 15.8413 136.574 16.0093 136.425 16.196C136.275 16.3827 136.07 16.6533 135.809 17.008C135.547 17.344 135.295 17.6707 135.053 17.988C133.653 19.7987 132.953 21.0493 132.953 21.74C132.953 22.412 133.186 22.748 133.653 22.748C134.045 22.748 134.577 22.5333 135.249 22.104C136.817 21.1333 138.058 20.0693 138.973 18.912C139.309 18.4827 139.533 18.268 139.645 18.268C139.775 18.268 139.841 18.3427 139.841 18.492C139.841 18.6413 139.626 18.94 139.197 19.388C138.767 19.836 138.422 20.1907 138.161 20.452C137.918 20.7133 137.75 20.8907 137.657 20.984C137.563 21.0587 137.386 21.2173 137.125 21.46C136.882 21.684 136.695 21.8427 136.565 21.936C136.434 22.0293 136.247 22.1693 136.005 22.356C135.762 22.5427 135.547 22.6827 135.361 22.776C135.174 22.8507 134.959 22.944 134.717 23.056C134.325 23.224 133.858 23.308 133.317 23.308ZM177.664 10.484C177.664 11.436 177.188 12.4813 176.236 13.62C175.284 14.7587 173.837 15.6827 171.896 16.392C169.973 17.1013 168.097 17.456 166.268 17.456C164.457 17.456 163.02 17.2227 161.956 16.756C159.604 20.2093 158.073 22.2907 157.364 23C155.348 25.016 152.94 26.024 150.14 26.024C148.553 26.024 147.358 25.6507 146.556 24.904C145.772 24.176 145.38 23.224 145.38 22.048C145.38 20.424 146.033 18.8933 147.34 17.456C148.777 15.8693 150.588 15.076 152.772 15.076C153.668 15.076 154.424 15.2813 155.04 15.692C155.656 16.1027 155.964 16.728 155.964 17.568C155.964 18.128 155.646 18.8 155.012 19.584C154.377 20.368 153.985 20.76 153.836 20.76C153.798 20.76 153.78 20.7227 153.78 20.648C153.78 20.5733 153.808 20.4987 153.864 20.424C154.461 19.5467 154.76 18.744 154.76 18.016C154.76 17.2693 154.526 16.7 154.06 16.308C153.612 15.8973 153.052 15.692 152.38 15.692C150.812 15.692 149.421 16.4107 148.208 17.848C147.013 19.2667 146.416 20.704 146.416 22.16C146.416 23.0933 146.705 23.8493 147.284 24.428C147.881 25.0067 148.796 25.296 150.028 25.296C152.324 25.296 154.293 24.5213 155.936 22.972C156.888 22.076 157.849 20.7693 158.82 19.052L161.256 14.656C162.45 12.7333 163.841 9.87733 165.428 6.088C165.26 6.088 165.092 6.088 164.924 6.088C162.404 6.088 159.874 6.368 157.336 6.928C154.797 7.46933 152.874 8.25333 151.568 9.28C151.008 9.70933 150.728 10.1293 150.728 10.54C150.728 10.9507 150.942 11.2867 151.372 11.548C151.82 11.7907 152.342 11.912 152.94 11.912C153.537 11.912 154.274 11.8 155.152 11.576C156.048 11.3333 156.72 11.016 157.168 10.624C157.354 10.4747 157.485 10.4 157.56 10.4C157.709 10.4 157.737 10.4747 157.644 10.624C156.972 11.408 155.954 11.996 154.592 12.388C153.752 12.6307 152.921 12.752 152.1 12.752C151.278 12.752 150.606 12.5747 150.084 12.22C149.561 11.8467 149.3 11.352 149.3 10.736C149.3 10.1013 149.636 9.46667 150.308 8.832C151.577 7.6 153.845 6.68533 157.112 6.088C159.426 5.67733 162.086 5.472 165.092 5.472C165.334 5.472 165.586 5.472 165.848 5.472C166.258 5.11733 166.632 4.94 166.968 4.94C167.304 4.94 167.472 5.07067 167.472 5.332C167.472 5.388 167.462 5.45333 167.444 5.528C170.337 5.73333 172.68 6.21867 174.472 6.984C176.6 7.88 177.664 9.04667 177.664 10.484ZM176.348 10.204C176.348 9.028 175.396 8.06667 173.492 7.32C171.83 6.66667 169.749 6.27467 167.248 6.144L166.352 8.944C165.642 10.6987 164.28 13.144 162.264 16.28C162.45 16.3733 162.768 16.476 163.216 16.588C163.962 16.7187 164.541 16.784 164.952 16.784C166.37 16.784 168.004 16.4947 169.852 15.916C171.7 15.3187 173.24 14.46 174.472 13.34C175.722 12.2013 176.348 11.156 176.348 10.204ZM175.19 23.364C174.984 23.364 174.798 23.336 174.63 23.28C173.435 22.944 172.838 22.272 172.838 21.264C172.838 19.9573 173.659 18.4453 175.302 16.728C176.944 15.0107 178.419 14.152 179.726 14.152C180.155 14.152 180.5 14.2733 180.762 14.516C181.042 14.74 181.182 15.02 181.182 15.356C181.182 16.4013 180.388 17.4 178.802 18.352C177.234 19.304 175.955 19.78 174.966 19.78C174.816 19.78 174.686 19.7613 174.574 19.724C174.294 20.228 174.154 20.76 174.154 21.32C174.154 22.2907 174.611 22.776 175.526 22.776C176.459 22.776 177.663 22.1507 179.138 20.9C180.276 19.9853 181.247 19.0147 182.05 17.988C182.218 17.764 182.358 17.652 182.47 17.652C182.6 17.652 182.666 17.708 182.666 17.82C182.666 17.932 182.591 18.0907 182.442 18.296C181.434 19.6213 180.22 20.7973 178.802 21.824C177.383 22.8507 176.179 23.364 175.19 23.364ZM180.482 15.3C180.482 15.076 180.239 14.964 179.754 14.964C179.287 14.964 178.615 15.328 177.738 16.056C176.562 17.0267 175.647 18.044 174.994 19.108C175.106 19.1453 175.227 19.164 175.358 19.164C176.067 19.164 177.01 18.7907 178.186 18.044C179.38 17.2787 180.127 16.448 180.426 15.552C180.463 15.4587 180.482 15.3747 180.482 15.3ZM186.665 23.14C185.265 23.14 184.565 22.3653 184.565 20.816C184.565 20.032 184.77 19.1733 185.181 18.24C185.592 17.3067 186.04 16.5227 186.525 15.888C186.432 15.9067 186.31 15.916 186.161 15.916C185.713 15.916 185.34 15.5987 185.041 14.964L182.969 17.652C181.812 19.0893 181.14 19.808 180.953 19.808C180.86 19.808 180.813 19.7707 180.813 19.696C180.813 19.5093 180.972 19.2387 181.289 18.884C182.913 16.9987 184.061 15.4027 184.733 14.096C185.162 12.472 185.704 11.66 186.357 11.66C186.786 11.66 187.001 11.8467 187.001 12.22C187.001 12.5933 186.768 13.0693 186.301 13.648L185.629 14.544C185.629 14.936 185.918 15.132 186.497 15.132C186.833 15.132 187.206 15.0107 187.617 14.768L188.345 14.32C188.382 14.3013 188.476 14.292 188.625 14.292C188.774 14.292 188.933 14.3853 189.101 14.572C189.269 14.7587 189.325 14.9267 189.269 15.076L187.337 17.512C186.142 19.0427 185.545 20.256 185.545 21.152C185.545 22.0293 185.956 22.468 186.777 22.468C187.636 22.468 188.69 22.0107 189.941 21.096C190.688 20.5547 191.369 19.948 191.985 19.276C192.564 18.604 192.881 18.268 192.937 18.268C193.068 18.268 193.133 18.3427 193.133 18.492C193.133 18.6227 193.049 18.7813 192.881 18.968L191.985 19.976C191.481 20.4987 190.921 21.0027 190.305 21.488C188.83 22.5893 187.617 23.14 186.665 23.14ZM196.481 14.152C196.985 14.152 197.237 14.348 197.237 14.74C197.237 14.852 197.209 14.964 197.153 15.076C195.473 17.4093 194.465 19.1733 194.129 20.368C198.478 16.0187 201.119 13.844 202.053 13.844C202.146 13.8253 202.23 13.816 202.305 13.816C202.827 13.816 203.089 14.0493 203.089 14.516C203.089 14.6093 203.07 14.7027 203.033 14.796C202.995 14.8893 202.622 15.3933 201.913 16.308C201.091 17.2787 200.391 18.212 199.813 19.108C199.253 20.004 198.973 20.7507 198.973 21.348C198.973 21.9453 199.103 22.244 199.365 22.244C200.186 22.244 201.614 21.1147 203.649 18.856C203.686 18.8187 203.751 18.7347 203.845 18.604C204.125 18.268 204.293 18.1 204.349 18.1C204.405 18.1 204.433 18.1933 204.433 18.38C204.433 18.5667 204.302 18.8093 204.041 19.108C201.726 21.74 200.083 23.056 199.113 23.056C198.198 23.056 197.741 22.552 197.741 21.544C197.741 20.536 198.114 19.3787 198.861 18.072L200.653 15.16C199.383 16.0933 198.254 17.12 197.265 18.24C196.275 19.3413 195.37 20.4147 194.549 21.46C193.746 22.5053 193.279 23.028 193.149 23.028C192.869 23.028 192.645 22.916 192.477 22.692C192.327 22.4493 192.253 22.16 192.253 21.824C192.253 21.4693 192.374 21.0027 192.617 20.424C192.859 19.8453 193.167 19.1453 193.541 18.324L191.861 20.088C191.45 20.4987 191.198 20.704 191.105 20.704C190.993 20.704 190.937 20.648 190.937 20.536C190.937 20.4053 191.011 20.2653 191.161 20.116C191.851 19.4253 192.449 18.7627 192.953 18.128C193.438 17.4933 194.437 16.28 195.949 14.488C196.117 14.264 196.294 14.152 196.481 14.152ZM209.342 11.576C209.622 11.576 209.883 11.6693 210.126 11.856C210.387 12.024 210.518 12.2293 210.518 12.472C210.518 12.7147 210.396 12.9293 210.154 13.116C209.93 13.284 209.678 13.368 209.398 13.368C209.118 13.368 208.856 13.2653 208.614 13.06C208.39 12.8547 208.278 12.6213 208.278 12.36C208.278 11.8373 208.632 11.576 209.342 11.576ZM204.274 23.308C203.322 23.308 202.846 22.692 202.846 21.46C202.846 20.452 203.396 19.0613 204.498 17.288C205.599 15.496 206.486 14.5907 207.158 14.572C207.344 14.572 207.55 14.6467 207.774 14.796C208.016 14.9453 208.138 15.0947 208.138 15.244C208.044 15.3747 207.932 15.524 207.802 15.692C207.671 15.8413 207.531 16.0093 207.382 16.196C207.232 16.3827 207.027 16.6533 206.766 17.008C206.504 17.344 206.252 17.6707 206.01 17.988C204.61 19.7987 203.91 21.0493 203.91 21.74C203.91 22.412 204.143 22.748 204.61 22.748C205.002 22.748 205.534 22.5333 206.206 22.104C207.774 21.1333 209.015 20.0693 209.93 18.912C210.266 18.4827 210.49 18.268 210.602 18.268C210.732 18.268 210.798 18.3427 210.798 18.492C210.798 18.6413 210.583 18.94 210.154 19.388C209.724 19.836 209.379 20.1907 209.118 20.452C208.875 20.7133 208.707 20.8907 208.614 20.984C208.52 21.0587 208.343 21.2173 208.082 21.46C207.839 21.684 207.652 21.8427 207.522 21.936C207.391 22.0293 207.204 22.1693 206.962 22.356C206.719 22.5427 206.504 22.6827 206.318 22.776C206.131 22.8507 205.916 22.944 205.674 23.056C205.282 23.224 204.815 23.308 204.274 23.308ZM215.322 23.336C213.847 23.336 212.597 22.1693 211.57 19.836C211.309 20.228 210.721 21.3293 209.806 23.14C209.134 22.8787 208.798 22.524 208.798 22.076C208.798 21.2733 210.002 19.0707 212.41 15.468C214.818 11.8653 216.47 9.74667 217.366 9.112C217.441 9.056 217.59 9.028 217.814 9.028C218.393 9.028 218.682 9.17733 218.682 9.476C218.682 9.62533 218.029 10.4653 216.722 11.996C215.434 13.5267 214.715 14.4507 214.566 14.768C216.265 13.8907 217.618 13.452 218.626 13.452C219.205 13.452 219.699 13.6853 220.11 14.152C220.502 14.544 220.698 14.9453 220.698 15.356C220.698 15.412 220.698 15.468 220.698 15.524C220.549 16.588 219.802 17.4653 218.458 18.156C217.375 18.7347 216.367 19.024 215.434 19.024C214.501 19.024 213.847 18.9027 213.474 18.66C213.362 18.6413 213.269 18.6693 213.194 18.744C213.138 18.8187 213.129 18.912 213.166 19.024C213.689 21.3387 214.557 22.496 215.77 22.496C216.405 22.496 217.217 22.1413 218.206 21.432C219.214 20.7227 220.259 19.724 221.342 18.436C221.473 18.3053 221.585 18.24 221.678 18.24C221.79 18.24 221.846 18.296 221.846 18.408C221.846 18.5013 221.781 18.6413 221.65 18.828C220.642 20.06 219.69 21.0307 218.794 21.74C217.431 22.804 216.274 23.336 215.322 23.336ZM219.354 14.768C219.354 14.6187 219.27 14.4693 219.102 14.32C218.934 14.1707 218.757 14.096 218.57 14.096C217.562 14.096 216.349 14.516 214.93 15.356C213.53 16.196 212.671 17.148 212.354 18.212C212.522 18.212 212.97 18.24 213.698 18.296C214.538 18.296 215.639 17.9507 217.002 17.26C218.57 16.476 219.354 15.6453 219.354 14.768ZM229.926 14.628L230.318 14.544C230.523 14.544 230.719 14.628 230.906 14.796C231.092 14.964 231.186 15.0947 231.186 15.188C231.186 15.2813 230.607 16.1867 229.45 17.904C228.292 19.6027 227.714 20.788 227.714 21.46C227.714 21.516 227.723 21.572 227.742 21.628C227.835 22.0573 228.04 22.272 228.358 22.272C229.328 22.272 231.102 20.6667 233.678 17.456C233.734 17.3813 233.799 17.344 233.874 17.344C233.948 17.344 233.986 17.4187 233.986 17.568C233.986 17.6987 233.902 17.876 233.734 18.1C231.344 21.292 229.524 22.888 228.274 22.888C228.106 22.888 227.947 22.86 227.798 22.804C226.976 22.4867 226.566 21.8707 226.566 20.956C226.566 20.6387 226.603 20.3213 226.678 20.004L224.942 21.684C223.84 22.6547 223.038 23.14 222.534 23.14C222.048 23.14 221.582 22.9813 221.134 22.664C220.63 22.2907 220.378 21.796 220.378 21.18C220.378 19.8173 221.33 18.1933 223.234 16.308C225.138 14.404 226.883 13.452 228.47 13.452C229.086 13.452 229.496 13.6667 229.702 14.096C229.758 14.2453 229.804 14.376 229.842 14.488C229.879 14.5813 229.907 14.628 229.926 14.628ZM221.554 21.516C221.554 22.188 221.787 22.524 222.254 22.524C223.336 22.524 224.811 21.3387 226.678 18.968L229.646 14.88C229.496 14.6187 229.254 14.488 228.918 14.488C227.779 14.488 226.267 15.3747 224.382 17.148C222.496 18.9027 221.554 20.3587 221.554 21.516ZM238.777 22.888C237.675 22.888 237.125 22.244 237.125 20.956C237.125 20.228 237.377 19.4253 237.881 18.548C238.403 17.652 239.038 16.6067 239.785 15.412C237.395 16.6067 235.23 18.3707 233.289 20.704C232.206 22.328 231.571 23.14 231.385 23.14C230.843 23.14 230.573 22.9813 230.573 22.664C230.573 22.496 230.685 22.1973 230.909 21.768C232.719 18.5387 234.091 16.1773 235.025 14.684C237.246 11.1187 238.814 9.18667 239.729 8.888C239.766 8.86933 239.803 8.86 239.841 8.86C240.083 8.86 240.251 9.056 240.345 9.448C240.289 9.84 239.318 11.2587 237.433 13.704C235.473 16.1867 234.362 17.8107 234.101 18.576C234.791 18.072 235.995 17.2227 237.713 16.028C239.561 14.74 240.783 14.096 241.381 14.096C241.978 14.096 242.277 14.3293 242.277 14.796C242.277 14.8707 242.267 14.9267 242.249 14.964C242.249 14.9827 241.605 15.86 240.317 17.596C239.029 19.332 238.385 20.6107 238.385 21.432C238.385 21.8613 238.543 22.076 238.861 22.076C239.869 22.0387 241.381 20.8253 243.397 18.436C243.565 18.268 243.686 18.184 243.761 18.184C243.854 18.184 243.901 18.24 243.901 18.352C243.901 18.7253 242.977 19.7333 241.129 21.376C239.971 22.384 239.187 22.888 238.777 22.888ZM251.992 14.628L252.384 14.544C252.589 14.544 252.785 14.628 252.972 14.796C253.159 14.964 253.252 15.0947 253.252 15.188C253.252 15.2813 252.673 16.1867 251.516 17.904C250.359 19.6027 249.78 20.788 249.78 21.46C249.78 21.516 249.789 21.572 249.808 21.628C249.901 22.0573 250.107 22.272 250.424 22.272C251.395 22.272 253.168 20.6667 255.744 17.456C255.8 17.3813 255.865 17.344 255.94 17.344C256.015 17.344 256.052 17.4187 256.052 17.568C256.052 17.6987 255.968 17.876 255.8 18.1C253.411 21.292 251.591 22.888 250.34 22.888C250.172 22.888 250.013 22.86 249.864 22.804C249.043 22.4867 248.632 21.8707 248.632 20.956C248.632 20.6387 248.669 20.3213 248.744 20.004L247.008 21.684C245.907 22.6547 245.104 23.14 244.6 23.14C244.115 23.14 243.648 22.9813 243.2 22.664C242.696 22.2907 242.444 21.796 242.444 21.18C242.444 19.8173 243.396 18.1933 245.3 16.308C247.204 14.404 248.949 13.452 250.536 13.452C251.152 13.452 251.563 13.6667 251.768 14.096C251.824 14.2453 251.871 14.376 251.908 14.488C251.945 14.5813 251.973 14.628 251.992 14.628ZM243.62 21.516C243.62 22.188 243.853 22.524 244.32 22.524C245.403 22.524 246.877 21.3387 248.744 18.968L251.712 14.88C251.563 14.6187 251.32 14.488 250.984 14.488C249.845 14.488 248.333 15.3747 246.448 17.148C244.563 18.9027 243.62 20.3587 243.62 21.516ZM258.715 14.152C259.219 14.152 259.471 14.348 259.471 14.74C259.471 14.852 259.443 14.964 259.387 15.076C257.707 17.4093 256.699 19.1733 256.363 20.368C260.712 16.0187 263.354 13.844 264.287 13.844C264.38 13.8253 264.464 13.816 264.539 13.816C265.062 13.816 265.323 14.0493 265.323 14.516C265.323 14.6093 265.304 14.7027 265.267 14.796C265.23 14.8893 264.856 15.3933 264.147 16.308C263.326 17.2787 262.626 18.212 262.047 19.108C261.487 20.004 261.207 20.7507 261.207 21.348C261.207 21.9453 261.338 22.244 261.599 22.244C262.42 22.244 263.848 21.1147 265.883 18.856C265.92 18.8187 265.986 18.7347 266.079 18.604C266.359 18.268 266.527 18.1 266.583 18.1C266.639 18.1 266.667 18.1933 266.667 18.38C266.667 18.5667 266.536 18.8093 266.275 19.108C263.96 21.74 262.318 23.056 261.347 23.056C260.432 23.056 259.975 22.552 259.975 21.544C259.975 20.536 260.348 19.3787 261.095 18.072L262.887 15.16C261.618 16.0933 260.488 17.12 259.499 18.24C258.51 19.3413 257.604 20.4147 256.783 21.46C255.98 22.5053 255.514 23.028 255.383 23.028C255.103 23.028 254.879 22.916 254.711 22.692C254.562 22.4493 254.487 22.16 254.487 21.824C254.487 21.4693 254.608 21.0027 254.851 20.424C255.094 19.8453 255.402 19.1453 255.775 18.324L254.095 20.088C253.684 20.4987 253.432 20.704 253.339 20.704C253.227 20.704 253.171 20.648 253.171 20.536C253.171 20.4053 253.246 20.2653 253.395 20.116C254.086 19.4253 254.683 18.7627 255.187 18.128C255.672 17.4933 256.671 16.28 258.183 14.488C258.351 14.264 258.528 14.152 258.715 14.152Z"
        fill="#E0B048" />
    <rect x="277" y="17" width="47" height="1" fill="#E0B048" />
    <rect y="17" width="48" height="1" fill="#E0B048" />
</svg>