<svg width="47" height="42" viewBox="0 0 47 42" fill="none" xmlns="http://www.w3.org/2000/svg">
    <path
        d="M14.751 37.3731H11.7725L11.1035 39.2286H10.1367L12.8516 32.1192H13.6719L16.3916 39.2286H15.4297L14.751 37.3731ZM12.0557 36.6016H14.4727L13.2617 33.2764L12.0557 36.6016ZM19.3262 38.5889C19.6484 38.5889 19.93 38.4913 20.1709 38.296C20.4118 38.1006 20.5452 37.8565 20.5713 37.5635H21.4258C21.4095 37.8663 21.3053 38.1544 21.1133 38.4278C20.9212 38.7012 20.6641 38.9193 20.3418 39.0821C20.0228 39.2449 19.6842 39.3262 19.3262 39.3262C18.6068 39.3262 18.0339 39.087 17.6074 38.6085C17.1842 38.1267 16.9727 37.4691 16.9727 36.6358V36.4844C16.9727 35.9701 17.0671 35.5128 17.2559 35.1124C17.4447 34.712 17.7148 34.4011 18.0664 34.1797C18.4212 33.9584 18.8395 33.8477 19.3213 33.8477C19.9137 33.8477 20.4053 34.0251 20.7959 34.3799C21.1898 34.7348 21.3997 35.1954 21.4258 35.7618H20.5713C20.5452 35.42 20.415 35.14 20.1807 34.9219C19.9495 34.7006 19.6631 34.5899 19.3213 34.5899C18.8623 34.5899 18.5059 34.7559 18.252 35.088C18.0013 35.4167 17.876 35.8936 17.876 36.5186V36.6895C17.876 37.2982 18.0013 37.767 18.252 38.0958C18.5026 38.4245 18.8607 38.5889 19.3262 38.5889ZM25.7031 39.2286C25.651 39.1244 25.6087 38.9389 25.5762 38.6719C25.1562 39.1081 24.6549 39.3262 24.0723 39.3262C23.5514 39.3262 23.1234 39.1797 22.7881 38.8868C22.4561 38.5906 22.29 38.2162 22.29 37.7637C22.29 37.2136 22.4984 36.7872 22.915 36.4844C23.335 36.1784 23.9242 36.0255 24.6826 36.0255H25.5615V35.6104C25.5615 35.2947 25.4671 35.044 25.2783 34.8585C25.0895 34.6697 24.8112 34.5753 24.4434 34.5753C24.1211 34.5753 23.8509 34.6566 23.6328 34.8194C23.4147 34.9822 23.3057 35.1791 23.3057 35.4102H22.3975C22.3975 35.1465 22.4902 34.8926 22.6758 34.6485C22.8646 34.4011 23.1185 34.2058 23.4375 34.0626C23.7598 33.9193 24.113 33.8477 24.4971 33.8477C25.1058 33.8477 25.5827 34.0007 25.9277 34.3067C26.2728 34.6094 26.4518 35.0277 26.4648 35.5616V37.9932C26.4648 38.4783 26.5267 38.864 26.6504 39.1505V39.2286H25.7031ZM24.2041 38.5401C24.4873 38.5401 24.7559 38.4669 25.0098 38.3204C25.2637 38.1739 25.4476 37.9835 25.5615 37.7491V36.6651H24.8535C23.7467 36.6651 23.1934 36.989 23.1934 37.6368C23.1934 37.92 23.2878 38.1413 23.4766 38.3008C23.6654 38.4603 23.9079 38.5401 24.2041 38.5401ZM30.4346 34.7559C30.2979 34.7331 30.1497 34.7217 29.9902 34.7217C29.3978 34.7217 28.9958 34.974 28.7842 35.4786V39.2286H27.8809V33.9454H28.7598L28.7744 34.5557C29.0706 34.0837 29.4906 33.8477 30.0342 33.8477C30.21 33.8477 30.3434 33.8705 30.4346 33.9161V34.7559ZM34.3359 39.2286C34.2839 39.1244 34.2415 38.9389 34.209 38.6719C33.7891 39.1081 33.2878 39.3262 32.7051 39.3262C32.1842 39.3262 31.7562 39.1797 31.4209 38.8868C31.0889 38.5906 30.9229 38.2162 30.9229 37.7637C30.9229 37.2136 31.1312 36.7872 31.5479 36.4844C31.9678 36.1784 32.557 36.0255 33.3154 36.0255H34.1943V35.6104C34.1943 35.2947 34.0999 35.044 33.9111 34.8585C33.7223 34.6697 33.444 34.5753 33.0762 34.5753C32.7539 34.5753 32.4837 34.6566 32.2656 34.8194C32.0475 34.9822 31.9385 35.1791 31.9385 35.4102H31.0303C31.0303 35.1465 31.123 34.8926 31.3086 34.6485C31.4974 34.4011 31.7513 34.2058 32.0703 34.0626C32.3926 33.9193 32.7458 33.8477 33.1299 33.8477C33.7386 33.8477 34.2155 34.0007 34.5605 34.3067C34.9056 34.6094 35.0846 35.0277 35.0977 35.5616V37.9932C35.0977 38.4783 35.1595 38.864 35.2832 39.1505V39.2286H34.3359ZM32.8369 38.5401C33.1201 38.5401 33.3887 38.4669 33.6426 38.3204C33.8965 38.1739 34.0804 37.9835 34.1943 37.7491V36.6651H33.4863C32.3796 36.6651 31.8262 36.989 31.8262 37.6368C31.8262 37.92 31.9206 38.1413 32.1094 38.3008C32.2982 38.4603 32.5407 38.5401 32.8369 38.5401Z"
        fill="black" />
    <path
        d="M31.5556 4.67302H30.3333V2.22858H27.8889V4.67302H18.1111V2.22858H15.6667V4.67302H14.4444C13.0878 4.67302 12.0122 5.77302 12.0122 7.11747L12 24.2286C12 25.573 13.0878 26.673 14.4444 26.673H31.5556C32.9 26.673 34 25.573 34 24.2286V7.11747C34 5.77302 32.9 4.67302 31.5556 4.67302ZM31.5556 24.2286H14.4444V10.7841H31.5556V24.2286ZM16.8889 13.2286H23V19.3397H16.8889V13.2286Z"
        fill="black" />
</svg>