<svg width="324" height="35" viewBox="0 0 324 35" fill="none" xmlns="http://www.w3.org/2000/svg">
    <path
        d="M120.488 14.992L123.204 14.936C123.876 14.936 124.212 14.9827 124.212 15.076C124.212 15.3187 122.849 15.5333 120.124 15.72C118.388 19.1173 117.52 21.432 117.52 22.664C117.52 23.5227 117.791 23.952 118.332 23.952C118.537 23.952 118.789 23.8213 119.088 23.56C119.405 23.3173 119.592 23.196 119.648 23.196C119.723 23.196 119.76 23.2427 119.76 23.336C119.667 23.672 119.377 23.952 118.892 24.176C118.425 24.4 118.024 24.512 117.688 24.512C117.371 24.512 117.119 24.4933 116.932 24.456C116.484 24.288 116.26 23.7467 116.26 22.832C116.26 20.9467 116.979 18.548 118.416 15.636L115.056 15.72C112.555 18.1653 110.044 20.312 107.524 22.16C103.753 24.904 100.804 26.276 98.676 26.276C98.5453 26.276 98.4147 26.2667 98.284 26.248C95.4093 26.0053 93.972 24.5307 93.972 21.824C93.972 20.2187 94.476 18.52 95.484 16.728C96.828 14.3387 98.6667 12.304 101 10.624C103.333 8.92533 105.424 8.076 107.272 8.076C109.12 8.076 110.044 8.75733 110.044 10.12C110.044 11.0347 109.764 12.052 109.204 13.172C108.644 14.292 108.075 15.0013 107.496 15.3C107.44 15.3187 107.375 15.328 107.3 15.328C107.244 15.328 107.216 15.3093 107.216 15.272L108.14 13.76C108.775 12.7707 109.092 11.9027 109.092 11.156C109.092 10.4093 108.924 9.812 108.588 9.364C108.271 8.89733 107.757 8.664 107.048 8.664C105.592 8.664 103.847 9.476 101.812 11.1C99.796 12.724 98.256 14.7213 97.192 17.092C96.1467 19.4627 95.624 21.3107 95.624 22.636C95.624 24.6333 96.6413 25.632 98.676 25.632C100.617 25.632 103.249 24.3813 106.572 21.88C108.047 20.7787 110.445 18.6973 113.768 15.636C113.115 15.6733 112.508 15.7387 111.948 15.832C110.753 16.056 110.193 16.0187 110.268 15.72C110.343 15.0293 110.697 14.684 111.332 14.684C112.564 14.8333 113.6 14.908 114.44 14.908C116.045 13.4333 118.444 11.016 121.636 7.656C123.783 5.39733 125.089 4.268 125.556 4.268C125.761 4.268 125.864 4.42667 125.864 4.744C125.864 5.06133 125.78 5.556 125.612 6.228C125.444 6.9 125.257 7.31067 125.052 7.46C124.623 7.75867 124.221 8.16933 123.848 8.692C123.475 9.196 122.943 10.1573 122.252 11.576C121.561 12.976 120.973 14.1147 120.488 14.992ZM122.728 8.16L115.56 14.88H117.212C117.604 14.8987 118.089 14.908 118.668 14.908C119.209 13.844 120.563 11.5947 122.728 8.16ZM128.287 23.336C126.812 23.336 125.562 22.1693 124.535 19.836C124.274 20.228 123.686 21.3293 122.771 23.14C122.099 22.8787 121.763 22.524 121.763 22.076C121.763 21.2733 122.967 19.0707 125.375 15.468C127.783 11.8653 129.435 9.74667 130.331 9.112C130.406 9.056 130.555 9.028 130.779 9.028C131.358 9.028 131.647 9.17733 131.647 9.476C131.647 9.62533 130.994 10.4653 129.687 11.996C128.399 13.5267 127.68 14.4507 127.531 14.768C129.23 13.8907 130.583 13.452 131.591 13.452C132.17 13.452 132.664 13.6853 133.075 14.152C133.467 14.544 133.663 14.9453 133.663 15.356C133.663 15.412 133.663 15.468 133.663 15.524C133.514 16.588 132.767 17.4653 131.423 18.156C130.34 18.7347 129.332 19.024 128.399 19.024C127.466 19.024 126.812 18.9027 126.439 18.66C126.327 18.6413 126.234 18.6693 126.159 18.744C126.103 18.8187 126.094 18.912 126.131 19.024C126.654 21.3387 127.522 22.496 128.735 22.496C129.37 22.496 130.182 22.1413 131.171 21.432C132.179 20.7227 133.224 19.724 134.307 18.436C134.438 18.3053 134.55 18.24 134.643 18.24C134.755 18.24 134.811 18.296 134.811 18.408C134.811 18.5013 134.746 18.6413 134.615 18.828C133.607 20.06 132.655 21.0307 131.759 21.74C130.396 22.804 129.239 23.336 128.287 23.336ZM132.319 14.768C132.319 14.6187 132.235 14.4693 132.067 14.32C131.899 14.1707 131.722 14.096 131.535 14.096C130.527 14.096 129.314 14.516 127.895 15.356C126.495 16.196 125.636 17.148 125.319 18.212C125.487 18.212 125.935 18.24 126.663 18.296C127.503 18.296 128.604 17.9507 129.967 17.26C131.535 16.476 132.319 15.6453 132.319 14.768ZM142.89 14.628L143.282 14.544C143.488 14.544 143.684 14.628 143.87 14.796C144.057 14.964 144.15 15.0947 144.15 15.188C144.15 15.2813 143.572 16.1867 142.414 17.904C141.257 19.6027 140.678 20.788 140.678 21.46C140.678 21.516 140.688 21.572 140.706 21.628C140.8 22.0573 141.005 22.272 141.322 22.272C142.293 22.272 144.066 20.6667 146.642 17.456C146.698 17.3813 146.764 17.344 146.838 17.344C146.913 17.344 146.95 17.4187 146.95 17.568C146.95 17.6987 146.866 17.876 146.698 18.1C144.309 21.292 142.489 22.888 141.238 22.888C141.07 22.888 140.912 22.86 140.762 22.804C139.941 22.4867 139.53 21.8707 139.53 20.956C139.53 20.6387 139.568 20.3213 139.642 20.004L137.906 21.684C136.805 22.6547 136.002 23.14 135.498 23.14C135.013 23.14 134.546 22.9813 134.098 22.664C133.594 22.2907 133.342 21.796 133.342 21.18C133.342 19.8173 134.294 18.1933 136.198 16.308C138.102 14.404 139.848 13.452 141.434 13.452C142.05 13.452 142.461 13.6667 142.666 14.096C142.722 14.2453 142.769 14.376 142.806 14.488C142.844 14.5813 142.872 14.628 142.89 14.628ZM134.518 21.516C134.518 22.188 134.752 22.524 135.218 22.524C136.301 22.524 137.776 21.3387 139.642 18.968L142.61 14.88C142.461 14.6187 142.218 14.488 141.882 14.488C140.744 14.488 139.232 15.3747 137.346 17.148C135.461 18.9027 134.518 20.3587 134.518 21.516ZM154.317 14.516C156.408 11.1187 157.864 9.42 158.685 9.42C158.816 9.42 158.993 9.46667 159.217 9.56C159.46 9.63467 159.581 9.756 159.581 9.924C159.581 10.0173 159.535 10.1387 159.441 10.288C157.948 12.1173 156.837 13.4893 156.109 14.404C153.907 17.1853 152.693 19.1827 152.469 20.396C152.413 20.6573 152.385 20.9187 152.385 21.18C152.385 22.02 152.731 22.44 153.421 22.44C154.803 22.44 156.604 21.1613 158.825 18.604C159.012 18.4173 159.171 18.3147 159.301 18.296C159.432 18.2587 159.497 18.2867 159.497 18.38C159.497 18.4733 159.441 18.5853 159.329 18.716C157.164 21.3107 155.241 22.7573 153.561 23.056C153.468 23.0747 153.337 23.084 153.169 23.084C152.591 23.084 152.152 22.888 151.853 22.496C151.573 22.0853 151.433 21.6467 151.433 21.18C151.433 20.6573 151.536 20.0787 151.741 19.444L149.473 21.712C148.447 22.664 147.635 23.14 147.037 23.14C146.459 23.14 145.973 22.9813 145.581 22.664C145.115 22.3093 144.881 21.8147 144.881 21.18C144.881 19.8173 145.833 18.1933 147.737 16.308C149.641 14.404 151.387 13.452 152.973 13.452C153.496 13.452 153.86 13.592 154.065 13.872C154.14 13.9653 154.224 14.18 154.317 14.516ZM146.057 21.516C146.057 22.188 146.291 22.524 146.757 22.524C147.56 22.524 148.895 21.4227 150.761 19.22C151.097 18.828 152.217 17.3627 154.121 14.824C153.991 14.6 153.767 14.488 153.449 14.488C152.292 14.488 150.771 15.3747 148.885 17.148C147 18.9027 146.057 20.3587 146.057 21.516ZM174.983 22.664C174.535 23.3547 174.311 23.8027 174.311 24.008C174.311 24.232 174.395 24.3813 174.563 24.456C174.563 24.4933 174.404 24.6053 174.087 24.792C173.788 24.9973 173.368 25.1 172.827 25.1C172.285 25.1 172.015 24.96 172.015 24.68C172.015 24.1947 172.929 22.5893 174.759 19.864C176.607 17.12 177.82 15.2253 178.399 14.18C179.668 11.9027 180.303 10.1013 180.303 8.776C180.303 8.25333 180.2 7.768 179.995 7.32C179.677 6.648 178.912 6.312 177.699 6.312C175.477 6.312 173.116 7.32933 170.615 9.364C168.711 10.932 167.245 12.556 166.219 14.236C165.285 15.8227 164.819 17.2413 164.819 18.492C164.819 20.284 165.649 21.1987 167.311 21.236C167.385 21.236 167.46 21.236 167.535 21.236C169.737 21.236 171.408 20.4613 172.547 18.912C172.995 18.296 173.219 17.7733 173.219 17.344C173.219 16.9147 173.116 16.644 172.911 16.532C172.892 16.5133 172.883 16.476 172.883 16.42C172.883 16.364 172.939 16.336 173.051 16.336C173.536 16.336 173.779 16.6533 173.779 17.288C173.779 17.68 173.592 18.212 173.219 18.884C172.845 19.556 172.164 20.1907 171.175 20.788C170.204 21.3853 169.093 21.684 167.843 21.684C166.592 21.684 165.603 21.32 164.875 20.592C164.147 19.864 163.783 18.884 163.783 17.652C163.783 14.74 165.78 11.6787 169.775 8.468C170.783 7.66533 172.089 6.99333 173.695 6.452C175.319 5.91067 176.784 5.64 178.091 5.64C179.416 5.64 180.349 5.892 180.891 6.396C181.432 6.88133 181.703 7.56267 181.703 8.44C181.703 10.568 180.415 13.5827 177.839 17.484C178.417 16.756 179.36 15.832 180.667 14.712C185.315 10.8107 189.309 8.244 192.651 7.012C192.819 6.93733 193.005 6.9 193.211 6.9C193.92 6.9 194.368 7.30133 194.555 8.104C194.648 8.42133 194.2 9.084 193.211 10.092C190.877 12.4813 188.899 15.0947 187.275 17.932C185.651 20.7693 184.839 22.804 184.839 24.036C184.839 24.3347 184.895 24.54 185.007 24.652C185.119 24.7827 185.296 24.82 185.539 24.764C185.781 24.7267 186.285 24.54 187.051 24.204C187.835 23.868 188.348 23.672 188.591 23.616C188.684 23.6533 188.731 23.7 188.731 23.756C188.731 24.036 188.236 24.428 187.247 24.932C186.276 25.436 185.548 25.688 185.063 25.688C184.577 25.688 184.269 25.604 184.139 25.436C183.803 24.9693 183.635 24.3813 183.635 23.672C183.635 22.0667 184.493 19.7613 186.211 16.756C187.312 14.8707 189.011 12.332 191.307 9.14C188.824 9.364 185.613 11.324 181.675 15.02C178.539 17.988 176.308 20.536 174.983 22.664ZM195.697 11.576C195.977 11.576 196.238 11.6693 196.481 11.856C196.742 12.024 196.873 12.2293 196.873 12.472C196.873 12.7147 196.752 12.9293 196.509 13.116C196.285 13.284 196.033 13.368 195.753 13.368C195.473 13.368 195.212 13.2653 194.969 13.06C194.745 12.8547 194.633 12.6213 194.633 12.36C194.633 11.8373 194.988 11.576 195.697 11.576ZM190.629 23.308C189.677 23.308 189.201 22.692 189.201 21.46C189.201 20.452 189.752 19.0613 190.853 17.288C191.954 15.496 192.841 14.5907 193.513 14.572C193.7 14.572 193.905 14.6467 194.129 14.796C194.372 14.9453 194.493 15.0947 194.493 15.244C194.4 15.3747 194.288 15.524 194.157 15.692C194.026 15.8413 193.886 16.0093 193.737 16.196C193.588 16.3827 193.382 16.6533 193.121 17.008C192.86 17.344 192.608 17.6707 192.365 17.988C190.965 19.7987 190.265 21.0493 190.265 21.74C190.265 22.412 190.498 22.748 190.965 22.748C191.357 22.748 191.889 22.5333 192.561 22.104C194.129 21.1333 195.37 20.0693 196.285 18.912C196.621 18.4827 196.845 18.268 196.957 18.268C197.088 18.268 197.153 18.3427 197.153 18.492C197.153 18.6413 196.938 18.94 196.509 19.388C196.08 19.836 195.734 20.1907 195.473 20.452C195.23 20.7133 195.062 20.8907 194.969 20.984C194.876 21.0587 194.698 21.2173 194.437 21.46C194.194 21.684 194.008 21.8427 193.877 21.936C193.746 22.0293 193.56 22.1693 193.317 22.356C193.074 22.5427 192.86 22.6827 192.673 22.776C192.486 22.8507 192.272 22.944 192.029 23.056C191.637 23.224 191.17 23.308 190.629 23.308ZM201.678 23.336C200.203 23.336 198.952 22.1693 197.926 19.836C197.664 20.228 197.076 21.3293 196.162 23.14C195.489 22.8787 195.153 22.524 195.153 22.076C195.153 21.2733 196.358 19.0707 198.766 15.468C201.174 11.8653 202.826 9.74667 203.722 9.112C203.796 9.056 203.946 9.028 204.169 9.028C204.748 9.028 205.038 9.17733 205.038 9.476C205.038 9.62533 204.384 10.4653 203.078 11.996C201.79 13.5267 201.071 14.4507 200.922 14.768C202.62 13.8907 203.974 13.452 204.982 13.452C205.56 13.452 206.055 13.6853 206.466 14.152C206.858 14.544 207.054 14.9453 207.054 15.356C207.054 15.412 207.054 15.468 207.054 15.524C206.904 16.588 206.158 17.4653 204.814 18.156C203.731 18.7347 202.723 19.024 201.79 19.024C200.856 19.024 200.203 18.9027 199.83 18.66C199.718 18.6413 199.624 18.6693 199.55 18.744C199.494 18.8187 199.484 18.912 199.522 19.024C200.044 21.3387 200.912 22.496 202.126 22.496C202.76 22.496 203.572 22.1413 204.562 21.432C205.57 20.7227 206.615 19.724 207.698 18.436C207.828 18.3053 207.94 18.24 208.034 18.24C208.146 18.24 208.202 18.296 208.202 18.408C208.202 18.5013 208.136 18.6413 208.006 18.828C206.998 20.06 206.046 21.0307 205.15 21.74C203.787 22.804 202.63 23.336 201.678 23.336ZM205.71 14.768C205.71 14.6187 205.626 14.4693 205.458 14.32C205.29 14.1707 205.112 14.096 204.926 14.096C203.918 14.096 202.704 14.516 201.286 15.356C199.886 16.196 199.027 17.148 198.71 18.212C198.878 18.212 199.326 18.24 200.053 18.296C200.894 18.296 201.995 17.9507 203.358 17.26C204.926 16.476 205.71 15.6453 205.71 14.768ZM216.281 14.628L216.673 14.544C216.878 14.544 217.074 14.628 217.261 14.796C217.448 14.964 217.541 15.0947 217.541 15.188C217.541 15.2813 216.962 16.1867 215.805 17.904C214.648 19.6027 214.069 20.788 214.069 21.46C214.069 21.516 214.078 21.572 214.097 21.628C214.19 22.0573 214.396 22.272 214.713 22.272C215.684 22.272 217.457 20.6667 220.033 17.456C220.089 17.3813 220.154 17.344 220.229 17.344C220.304 17.344 220.341 17.4187 220.341 17.568C220.341 17.6987 220.257 17.876 220.089 18.1C217.7 21.292 215.88 22.888 214.629 22.888C214.461 22.888 214.302 22.86 214.153 22.804C213.332 22.4867 212.921 21.8707 212.921 20.956C212.921 20.6387 212.958 20.3213 213.033 20.004L211.297 21.684C210.196 22.6547 209.393 23.14 208.889 23.14C208.404 23.14 207.937 22.9813 207.489 22.664C206.985 22.2907 206.733 21.796 206.733 21.18C206.733 19.8173 207.685 18.1933 209.589 16.308C211.493 14.404 213.238 13.452 214.825 13.452C215.441 13.452 215.852 13.6667 216.057 14.096C216.113 14.2453 216.16 14.376 216.197 14.488C216.234 14.5813 216.262 14.628 216.281 14.628ZM207.909 21.516C207.909 22.188 208.142 22.524 208.609 22.524C209.692 22.524 211.166 21.3387 213.033 18.968L216.001 14.88C215.852 14.6187 215.609 14.488 215.273 14.488C214.134 14.488 212.622 15.3747 210.737 17.148C208.852 18.9027 207.909 20.3587 207.909 21.516ZM225.132 22.888C224.031 22.888 223.48 22.244 223.48 20.956C223.48 20.228 223.732 19.4253 224.236 18.548C224.759 17.652 225.393 16.6067 226.14 15.412C223.751 16.6067 221.585 18.3707 219.644 20.704C218.561 22.328 217.927 23.14 217.74 23.14C217.199 23.14 216.928 22.9813 216.928 22.664C216.928 22.496 217.04 22.1973 217.264 21.768C219.075 18.5387 220.447 16.1773 221.38 14.684C223.601 11.1187 225.169 9.18667 226.084 8.888C226.121 8.86933 226.159 8.86 226.196 8.86C226.439 8.86 226.607 9.056 226.7 9.448C226.644 9.84 225.673 11.2587 223.788 13.704C221.828 16.1867 220.717 17.8107 220.456 18.576C221.147 18.072 222.351 17.2227 224.068 16.028C225.916 14.74 227.139 14.096 227.736 14.096C228.333 14.096 228.632 14.3293 228.632 14.796C228.632 14.8707 228.623 14.9267 228.604 14.964C228.604 14.9827 227.96 15.86 226.672 17.596C225.384 19.332 224.74 20.6107 224.74 21.432C224.74 21.8613 224.899 22.076 225.216 22.076C226.224 22.0387 227.736 20.8253 229.752 18.436C229.92 18.268 230.041 18.184 230.116 18.184C230.209 18.184 230.256 18.24 230.256 18.352C230.256 18.7253 229.332 19.7333 227.484 21.376C226.327 22.384 225.543 22.888 225.132 22.888Z"
        fill="#E0B048" />
    <rect y="17" width="83" height="1" fill="#E0B048" />
    <rect x="241" y="17" width="83" height="1" fill="#E0B048" />
</svg>