<svg width="31" height="42" viewBox="0 0 31 42" fill="none" xmlns="http://www.w3.org/2000/svg">
    <path
        d="M8.07422 38.296C7.83333 38.641 7.49642 38.8998 7.06348 39.0723C6.63379 39.2416 6.13249 39.3262 5.55957 39.3262C4.98014 39.3262 4.46582 39.1911 4.0166 38.921C3.56738 38.6475 3.21908 38.2602 2.97168 37.7589C2.72754 37.2575 2.60221 36.6765 2.5957 36.0157V35.3956C2.5957 34.3246 2.84473 33.4945 3.34277 32.9053C3.84408 32.3161 4.5472 32.0215 5.45215 32.0215C6.19434 32.0215 6.79167 32.212 7.24414 32.5928C7.69661 32.9704 7.97331 33.5075 8.07422 34.2042H7.13672C6.96094 33.2634 6.40104 32.793 5.45703 32.793C4.82878 32.793 4.35189 33.0144 4.02637 33.4571C3.7041 33.8965 3.54134 34.5346 3.53809 35.3712V35.9522C3.53809 36.7497 3.72038 37.3845 4.08496 37.8565C4.44954 38.3253 4.94271 38.5596 5.56445 38.5596C5.91602 38.5596 6.22363 38.5206 6.4873 38.4424C6.75098 38.3643 6.96908 38.2325 7.1416 38.0469V36.4503H5.49609V35.6885H8.07422V38.296ZM12.7617 39.2286C12.7096 39.1244 12.6673 38.9389 12.6348 38.6719C12.2148 39.1081 11.7135 39.3262 11.1309 39.3262C10.61 39.3262 10.182 39.1797 9.84668 38.8868C9.51465 38.5906 9.34863 38.2162 9.34863 37.7637C9.34863 37.2136 9.55697 36.7872 9.97363 36.4844C10.3936 36.1784 10.9827 36.0255 11.7412 36.0255H12.6201V35.6104C12.6201 35.2947 12.5257 35.044 12.3369 34.8585C12.1481 34.6697 11.8698 34.5753 11.502 34.5753C11.1797 34.5753 10.9095 34.6566 10.6914 34.8194C10.4733 34.9822 10.3643 35.1791 10.3643 35.4102H9.45605C9.45605 35.1465 9.54883 34.8926 9.73438 34.6485C9.92318 34.4011 10.1771 34.2058 10.4961 34.0626C10.8184 33.9193 11.1715 33.8477 11.5557 33.8477C12.1644 33.8477 12.6413 34.0007 12.9863 34.3067C13.3314 34.6094 13.5104 35.0277 13.5234 35.5616V37.9932C13.5234 38.4783 13.5853 38.864 13.709 39.1505V39.2286H12.7617ZM11.2627 38.5401C11.5459 38.5401 11.8145 38.4669 12.0684 38.3204C12.3223 38.1739 12.5062 37.9835 12.6201 37.7491V36.6651H11.9121C10.8053 36.6651 10.252 36.989 10.252 37.6368C10.252 37.92 10.3464 38.1413 10.5352 38.3008C10.724 38.4603 10.9665 38.5401 11.2627 38.5401ZM15.9209 39.2286H15.0176V31.7286H15.9209V39.2286ZM19.5635 39.3262C18.8473 39.3262 18.2646 39.0919 17.8154 38.6231C17.3662 38.1511 17.1416 37.5212 17.1416 36.7335V36.5674C17.1416 36.0434 17.2409 35.5762 17.4395 35.1661C17.6413 34.7527 17.9212 34.4304 18.2793 34.1993C18.6406 33.9649 19.0312 33.8477 19.4512 33.8477C20.138 33.8477 20.6719 34.074 21.0527 34.5264C21.4336 34.9789 21.624 35.6267 21.624 36.4698V36.8458H18.0449C18.0579 37.3666 18.2093 37.7881 18.499 38.1104C18.792 38.4294 19.1631 38.5889 19.6123 38.5889C19.9313 38.5889 20.2015 38.5238 20.4229 38.3936C20.6442 38.2634 20.8379 38.0909 21.0039 37.876L21.5557 38.3057C21.113 38.9861 20.4489 39.3262 19.5635 39.3262ZM19.4512 34.5899C19.0866 34.5899 18.7806 34.7234 18.5332 34.9903C18.2858 35.254 18.1328 35.6251 18.0742 36.1036H20.7207V36.0352C20.6947 35.5762 20.571 35.2214 20.3496 34.9708C20.1283 34.7169 19.8288 34.5899 19.4512 34.5899ZM25.2275 34.7559C25.0908 34.7331 24.9427 34.7217 24.7832 34.7217C24.1908 34.7217 23.7887 34.974 23.5771 35.4786V39.2286H22.6738V33.9454H23.5527L23.5674 34.5557C23.8636 34.0837 24.2835 33.8477 24.8271 33.8477C25.0029 33.8477 25.1364 33.8705 25.2275 33.9161V34.7559ZM27.0439 39.2286H26.1406V33.9454H27.0439V39.2286ZM26.0674 32.544C26.0674 32.3975 26.1113 32.2738 26.1992 32.1729C26.2904 32.072 26.4238 32.0215 26.5996 32.0215C26.7754 32.0215 26.9089 32.072 27 32.1729C27.0911 32.2738 27.1367 32.3975 27.1367 32.544C27.1367 32.6905 27.0911 32.8126 27 32.9102C26.9089 33.0079 26.7754 33.0567 26.5996 33.0567C26.4238 33.0567 26.2904 33.0079 26.1992 32.9102C26.1113 32.8126 26.0674 32.6905 26.0674 32.544Z"
        fill="black" />
    <path
        d="M4.65094 16.9027H14.464V4.63638H4.65094V16.9027ZM4.65094 26.7157H14.464V19.3559H4.65094V26.7157ZM16.9172 26.7157H26.7303V14.4494H16.9172V26.7157ZM16.9172 4.63638V11.9962H26.7303V4.63638H16.9172Z"
        fill="black" />
</svg>